<?xml version="1.0" encoding="utf-8"?>
<!-- Generator: Adobe Illustrator 23.1.0, SVG Export Plug-In . SVG Version: 6.00 Build 0)  -->
<svg version="1.1" id="Layer_2" xmlns="http://www.w3.org/2000/svg" xmlns:xlink="http://www.w3.org/1999/xlink" x="0px" y="0px"
	 viewBox="0 0 100 100" style="enable-background:new 0 0 100 100;" xml:space="preserve">
<style type="text/css">
	.st0{fill:#ED1C24;}
	.st1{fill:#FFFFFF;}
</style>
<g>
	<path class="st0" d="M93.97,100c-3.33,0-6.02-2.7-6.02-6.02c0-21.89-8.52-42.46-24-57.94c-15.47-15.47-36.05-24-57.93-24
		c-3.33,0-6.02-2.7-6.02-6.02S2.69,0,6.01,0c25.1,0,48.71,9.78,66.45,27.53c17.75,17.75,27.53,41.35,27.53,66.45
		C99.99,97.3,97.3,100,93.97,100z"/>
	<path class="st0" d="M64.92,100c-3.33,0-6.02-2.7-6.02-6.02c0-14.13-5.5-27.41-15.49-37.4S20.14,41.09,6.01,41.09
		c-3.33,0-6.02-2.7-6.02-6.02s2.69-6.02,6.02-6.02c17.34,0,33.65,6.75,45.91,19.02c12.27,12.26,19.02,28.57,19.02,45.91
		C70.94,97.3,68.25,100,64.92,100z"/>
	<path class="st0" d="M35.87,100c-3.33,0-6.02-2.7-6.02-6.02c0-6.37-2.48-12.35-6.98-16.86c-4.5-4.5-10.48-6.98-16.85-6.98
		c-3.33,0-6.02-2.7-6.02-6.02s2.69-6.02,6.02-6.02c9.59,0,18.59,3.73,25.37,10.51c6.77,6.78,10.51,15.79,10.51,25.37
		C41.89,97.3,39.2,100,35.87,100z"/>
</g>
<circle class="st0" cx="7.09" cy="92.9" r="7.1"/>
</svg>
