<svg width="50" height="58" viewBox="0 0 50 58" fill="none" xmlns="http://www.w3.org/2000/svg">
<mask id="mask0_1390_1642" style="mask-type:alpha" maskUnits="userSpaceOnUse" x="0" y="0" width="50" height="58">
<path d="M43.3034 12.9055C42.9238 12.7092 42.5542 12.4941 42.196 12.2609C41.1545 11.5724 40.1996 10.7611 39.3519 9.84453C37.2308 7.41758 36.4386 4.95547 36.1468 3.23164H36.1585C35.9148 1.80078 36.0156 0.875 36.0308 0.875H26.3699V38.232C26.3699 38.7336 26.3699 39.2293 26.3488 39.7191C26.3488 39.7801 26.3429 39.8363 26.3394 39.902C26.3394 39.9289 26.3394 39.957 26.3335 39.9852C26.3335 39.9922 26.3335 39.9992 26.3335 40.0063C26.2317 41.3466 25.802 42.6414 25.0823 43.7768C24.3626 44.9121 23.375 45.8532 22.2062 46.5172C20.9881 47.2102 19.6104 47.5737 18.2089 47.5719C13.7077 47.5719 10.0597 43.9016 10.0597 39.3688C10.0597 34.8359 13.7077 31.1656 18.2089 31.1656C19.061 31.1648 19.9078 31.2989 20.7179 31.5629L20.7296 21.7262C18.2703 21.4085 15.7718 21.6039 13.3918 22.3002C11.0118 22.9965 8.80186 24.1784 6.9015 25.7715C5.23634 27.2183 3.83644 28.9446 2.76478 30.8727C2.35697 31.5758 0.818295 34.4012 0.631967 38.9867C0.51478 41.5895 1.29642 44.2859 1.66908 45.4004V45.4238C1.90345 46.0801 2.81165 48.3195 4.29173 50.2074C5.48521 51.7218 6.89527 53.0521 8.4765 54.1555V54.132L8.49993 54.1555C13.1769 57.3336 18.3624 57.125 18.3624 57.125C19.2601 57.0887 22.2671 57.125 25.682 55.5066C29.4695 53.7125 31.6257 51.0395 31.6257 51.0395C33.0032 49.4423 34.0986 47.6221 34.8648 45.657C35.739 43.359 36.0308 40.6027 36.0308 39.5012V19.6824C36.148 19.7527 37.7089 20.7852 37.7089 20.7852C37.7089 20.7852 39.9577 22.2266 43.4663 23.1652C45.9835 23.8332 49.3749 23.9738 49.3749 23.9738V14.3832C48.1867 14.5121 45.7738 14.1371 43.3034 12.9055Z" fill="black"/>
</mask>
<g mask="url(#mask0_1390_1642)">
<rect x="1" y="-43" width="97" height="145" fill="#161F62"/>
</g>
</svg>
